<svg xmlns="http://www.w3.org/2000/svg" width="1024" height="1024" viewBox="0 0 1024 1024">
  <defs>
    <linearGradient id="bg" x1="0" y1="0" x2="0" y2="1">
      <stop offset="0" stop-color="#ffffff"/>
      <stop offset="1" stop-color="#f1ece4"/>
    </linearGradient>
    <linearGradient id="disc" x1="0" y1="0" x2="1" y2="1">
      <stop offset="0" stop-color="#E8895F"/>
      <stop offset="1" stop-color="#C9603A"/>
    </linearGradient>
    <linearGradient id="arc" x1="0" y1="0" x2="1" y2="1">
      <stop offset="0" stop-color="#E8895F"/>
      <stop offset="1" stop-color="#C9603A"/>
    </linearGradient>
    <mask id="spark">
      <rect x="0" y="0" width="100" height="100" fill="#fff"/>
      <path d="M50 31 C52.4 46.5 53.5 47.6 69 50 C53.5 52.4 52.4 53.5 50 69 C47.6 53.5 46.5 52.4 31 50 C46.5 47.6 47.6 46.5 50 31 Z" fill="#000"/>
    </mask>
  </defs>

  <rect x="100" y="100" width="824" height="824" rx="185" fill="url(#bg)" stroke="rgba(0,0,0,.06)" stroke-width="2"/>

  <g transform="translate(512 512) scale(6.08) translate(-50 -50)">
    <circle cx="50" cy="50" r="25" fill="url(#disc)" mask="url(#spark)"/>
    <circle cx="50" cy="50" r="38" fill="none" stroke="#e6ded3" stroke-width="7"/>
    <circle cx="50" cy="50" r="38" fill="none" stroke="url(#arc)" stroke-width="7"
            stroke-linecap="round" stroke-dasharray="170 239" transform="rotate(-90 50 50)"/>
  </g>
</svg>
